<svg width="350" height="334" viewBox="0 0 350 334" fill="none" xmlns="http://www.w3.org/2000/svg">
<path d="M133.06 54.4931C147.694 9.45542 211.41 9.45543 226.044 54.4931C232.588 74.6346 251.358 88.2714 272.536 88.2714C319.891 88.2714 339.581 148.869 301.269 176.704C284.136 189.152 276.967 211.217 283.511 231.358C298.145 276.396 246.597 313.848 208.286 286.013C191.152 273.565 167.952 273.565 150.819 286.013C112.507 313.848 60.9598 276.396 75.5934 231.358C82.1378 211.217 74.9685 189.152 57.8351 176.704C19.5238 148.869 39.2132 88.2714 86.5686 88.2714C107.747 88.2714 126.516 74.6346 133.06 54.4931Z" fill="black"/>
<path d="M86.738 108.879C73.8051 68.64 119.919 35.36 154.034 60.3121C169.29 71.471 189.997 71.5369 205.325 60.4753C239.597 35.7408 285.499 69.3137 272.31 109.469C266.412 127.428 272.748 147.141 288.004 158.3C322.119 183.252 304.374 237.282 262.108 237.147C243.206 237.087 226.415 249.205 220.517 267.163C207.328 307.319 150.459 307.138 137.526 266.899C131.743 248.903 115.029 236.679 96.1273 236.619C53.8614 236.484 36.4602 182.343 70.7331 157.609C86.0604 146.547 92.5218 126.874 86.738 108.879Z" fill="black"/>
<path d="M106.645 121.533C96.445 89.7802 132.85 63.5072 159.772 83.1916C171.811 91.9948 188.156 92.0425 200.256 83.3099C227.313 63.7832 263.536 90.2684 253.117 121.961C248.458 136.134 253.455 151.69 265.495 160.493C292.417 180.178 278.399 222.82 245.039 222.722C230.119 222.679 216.864 232.245 212.205 246.418C201.786 278.111 156.9 277.98 146.7 246.227C142.138 232.027 128.949 222.383 114.03 222.339C80.6689 222.242 66.9451 179.519 94.002 159.992C106.102 151.26 111.206 135.733 106.645 121.533Z" fill="white"/>
<path d="M126.811 134.065C119.639 111.438 145.858 92.5155 165.074 106.452C173.667 112.684 185.386 112.645 194.1 106.356C213.587 92.2929 239.441 111.044 231.831 133.72C228.427 143.861 231.941 154.947 240.534 161.179C259.75 175.115 249.51 205.626 225.591 205.705C214.894 205.74 205.347 212.63 201.943 222.771C194.332 245.447 162.149 245.553 154.977 222.925C151.77 212.806 142.356 205.978 131.659 206.014C107.739 206.092 98.0892 175.647 117.576 161.583C126.29 155.294 130.019 144.185 126.811 134.065Z" fill="black"/>
<circle cx="178.45" cy="166.171" r="21.4175" transform="rotate(-35.8177 178.45 166.171)" fill="white"/>
<ellipse cx="179.5" cy="53.4998" rx="22.5" ry="9.5" transform="rotate(180 179.5 53.4998)" fill="white"/>
<ellipse cx="71.0609" cy="130.415" rx="22.5" ry="9.5" transform="rotate(109.293 71.0609 130.415)" fill="white"/>
<ellipse cx="112.43" cy="257.6" rx="22.5" ry="9.5" transform="rotate(37.3031 112.43 257.6)" fill="white"/>
<ellipse cx="246.582" cy="258.333" rx="22.5" ry="9.5" transform="rotate(-37.9771 246.582 258.333)" fill="white"/>
<ellipse cx="287.902" cy="131.409" rx="22.5" ry="9.5" transform="rotate(71.598 287.902 131.409)" fill="white"/>
</svg>
