<svg width="57" height="56" viewBox="0 0 57 56" fill="none" xmlns="http://www.w3.org/2000/svg">
<path d="M7.64275 42.1101C8.81585 42.7267 10.1836 43.0886 11.715 43.0935C15.4951 43.1057 18.8377 45.558 19.9943 49.1677C20.5418 50.8762 21.4839 52.2237 22.6525 53.2117C22.6499 53.2136 22.6473 53.2166 22.6447 53.2185C14.9826 58.8011 4.67384 51.2886 7.59978 42.2546C7.61523 42.2069 7.62806 42.1579 7.64275 42.1101ZM49.1838 42.2546C52.11 51.289 41.7999 58.8021 34.1379 53.2185C34.1029 53.193 34.0667 53.1693 34.0314 53.1443C35.1499 52.1736 36.0541 50.8659 36.5929 49.2205C37.7726 45.6185 41.1302 43.1881 44.9103 43.2C46.5137 43.2051 47.9403 42.8178 49.1535 42.155C49.1638 42.188 49.1731 42.2217 49.1838 42.2546ZM45.3449 44.8884C44.6992 44.0589 42.5871 44.63 40.6281 46.1638C38.6697 47.6975 37.6049 49.6135 38.2502 50.4431C38.8959 51.2725 41.0081 50.7013 42.967 49.1677C44.9257 47.6339 45.9904 45.7181 45.3449 44.8884ZM16.1183 46.0027C14.1416 44.4923 12.0237 43.9468 11.3879 44.7839C10.7529 45.6214 11.8393 47.5246 13.8156 49.0349C15.7921 50.5453 17.9106 51.091 18.547 50.2546C19.183 49.4175 18.0952 47.5134 16.1183 46.0027ZM47.3283 13.5574C56.4304 13.8401 60.2036 25.4581 53.0295 31.0662C52.456 29.6888 51.4931 28.4118 50.09 27.3826C47.0389 25.1441 45.7718 21.1901 46.9513 17.5877C47.4103 16.186 47.5105 14.8244 47.3283 13.5574ZM9.46794 13.5574C9.30122 14.789 9.40127 16.1095 9.83708 17.4695C10.9937 21.0792 9.70128 25.0259 6.63591 27.2449C5.20224 28.2827 4.22125 29.5785 3.64275 30.9793C-3.38432 25.3362 0.404313 13.8287 9.46794 13.5574ZM51.8644 21.6033C51.0799 19.238 49.6365 17.5904 48.6408 17.9226C47.646 18.256 47.4747 20.4419 48.259 22.8064C49.0434 25.1711 50.487 26.8186 51.4826 26.4871C52.4779 26.1544 52.6488 23.9681 51.8644 21.6033ZM8.17986 17.7459C7.18947 17.3985 5.72065 19.0233 4.89958 21.3757C4.07878 23.7279 4.21631 25.9172 5.20623 26.2654C6.19653 26.6131 7.66531 24.9878 8.4865 22.6355C9.30763 20.2828 9.17027 18.0936 8.17986 17.7459ZM19.3449 6.08277C22.6022 -2.04953 34.2504 -2.02735 37.4631 6.1482C36.14 6.33652 34.8078 6.85182 33.5539 7.75953C30.4883 9.97837 26.3472 9.96475 23.2961 7.72632C22.0314 6.79861 20.6839 6.27337 19.3449 6.08277ZM28.381 4.67066C25.8959 4.67075 23.881 5.52448 23.881 6.57691C23.8821 7.62893 25.8966 8.48209 28.381 8.48218C30.8656 8.48218 32.8799 7.62899 32.881 6.57691C32.881 5.52443 30.8663 4.67066 28.381 4.67066Z" fill="#D2042D"/>
<path d="M31.3878 16.9738C35.2851 14.1528 40.4563 17.9144 38.9347 22.463C38.2539 24.4973 38.9563 26.7217 40.6749 27.9718C44.5179 30.7673 42.4702 36.8874 37.6866 36.9034C35.5474 36.9105 33.6381 38.2923 32.9571 40.3263C31.4349 44.8751 24.998 44.8967 23.5636 40.3575C22.9222 38.3277 21.0389 36.9577 18.8995 36.965C14.116 36.9803 12.1863 30.8741 16.0831 28.0529C17.8259 26.7913 18.5724 24.5624 17.9308 22.5323C16.4964 17.9934 21.7399 14.1976 25.5831 16.9933C27.3017 18.2433 29.6451 18.2352 31.3878 16.9738ZM31.7316 26.4591C30.3472 24.5352 27.6703 24.1011 25.7521 25.4894C23.8338 26.878 23.4008 29.5634 24.7853 31.4874C26.1697 33.4113 28.8465 33.8454 30.7648 32.4572C32.6831 31.0686 33.116 28.3832 31.7316 26.4591Z" fill="#D2042D"/>
<path d="M9.83698 17.4696C7.25069 9.39789 16.4731 2.72234 23.296 7.72742C26.3472 9.96588 30.4892 9.97956 33.5548 7.76063C40.4091 2.79899 49.5887 9.53283 46.9512 17.5878C45.7717 21.1903 47.0389 25.1452 50.0899 27.3837C56.9129 32.389 53.3643 43.227 44.9112 43.2001C41.1308 43.188 37.7724 45.6192 36.5928 49.2216C33.955 57.2767 22.5809 57.2405 19.9942 49.1688C18.8376 45.5589 15.4952 43.1067 11.7149 43.0946C3.26179 43.0675 -0.218591 32.2067 6.63581 27.245C9.70127 25.026 10.9937 21.0794 9.83698 17.4696ZM20.213 10.9559C19.4254 10.9788 18.6557 11.1429 17.9346 11.4247C17.65 11.536 17.3732 11.6666 17.1055 11.8134C16.3979 12.2015 15.7562 12.7088 15.2159 13.3104C15.0358 13.511 14.8663 13.7218 14.71 13.9423C14.6599 14.0131 14.6111 14.0854 14.5635 14.1581C14.4211 14.376 14.2903 14.6027 14.1729 14.8368C13.8988 15.3838 13.6963 15.9733 13.5801 16.5936C13.5305 16.8592 13.4964 17.1309 13.4796 17.4071C13.4627 17.6836 13.4632 17.9654 13.4815 18.2509C13.4937 18.441 13.5134 18.6335 13.5421 18.827C13.5994 19.2145 13.691 19.6087 13.8184 20.0067C13.8468 20.0954 13.8738 20.1851 13.8985 20.2743C13.948 20.4531 13.9898 20.6333 14.0245 20.8134C14.4579 23.0666 13.7417 25.3898 12.1309 27.0048C11.8734 27.2629 11.5923 27.5028 11.2901 27.7216C11.1124 27.8502 10.9435 27.9847 10.7833 28.1229C10.6841 28.2085 10.5888 28.2967 10.4962 28.3856C7.46429 31.2972 7.94479 35.9574 10.6925 38.4764C10.7569 38.5355 10.8228 38.5936 10.8897 38.6503C12.0286 39.6146 13.5237 40.2232 15.296 40.2284C16.0419 40.2307 16.7662 40.3537 17.4473 40.5809C19.3202 41.2056 20.867 42.621 21.6387 44.4979C21.6736 44.5827 21.7067 44.6691 21.7383 44.7557C21.7702 44.8429 21.8007 44.9314 21.8292 45.0204C21.9885 45.5179 22.1904 45.9773 22.4278 46.3973C22.5227 46.5652 22.6237 46.7272 22.7296 46.8827C22.7825 46.9604 22.8372 47.0366 22.8926 47.1112C22.9481 47.1858 23.0046 47.2595 23.0626 47.3309C23.1208 47.4028 23.1807 47.4732 23.2413 47.5419C23.3015 47.6101 23.3633 47.6769 23.4258 47.7421C24.0534 48.3966 24.7924 48.896 25.5899 49.2401C25.6694 49.2744 25.7495 49.3075 25.8301 49.3388C27.2858 49.9025 28.914 49.9626 30.4073 49.5194C30.49 49.4949 30.5725 49.4689 30.6544 49.4413C31.4752 49.164 32.2488 48.731 32.9229 48.1425C33.0676 48.0162 33.2079 47.8827 33.3428 47.7421C33.6967 47.3732 34.0151 46.9547 34.2891 46.4872C34.3972 46.3028 34.4992 46.1108 34.5928 45.911C34.7194 45.6411 34.8331 45.3564 34.9307 45.0585C35.1055 44.5256 35.3406 44.0247 35.627 43.5634C35.6747 43.4866 35.724 43.4104 35.7745 43.3358C35.8249 43.2613 35.8766 43.1874 35.9298 43.1151C36.5689 42.2461 37.4016 41.5424 38.3536 41.0565C38.7502 40.8541 39.1677 40.6892 39.6007 40.5663C39.6873 40.5417 39.7745 40.5182 39.8624 40.497C40.2466 40.4041 40.6422 40.3454 41.045 40.3202C41.1947 40.3108 41.3456 40.3051 41.4971 40.3055C41.6013 40.3059 41.7045 40.3045 41.8067 40.3007C42.8302 40.2624 43.7575 40.0195 44.5723 39.6229C44.7353 39.5436 44.8941 39.4583 45.0479 39.3671C45.1247 39.3215 45.2001 39.2738 45.2745 39.2255C45.4236 39.1286 45.5685 39.0264 45.7081 38.9188C47.3137 37.6813 48.2804 35.7618 48.4073 33.7723C48.4153 33.6471 48.4187 33.5211 48.42 33.3954C48.4406 31.3521 47.569 29.275 45.588 27.8222C43.1804 26.0562 42.1807 22.9355 43.1124 20.0927C44.5119 15.8216 41.7018 12.0215 38.0655 11.1757C37.9807 11.156 37.8953 11.1384 37.8096 11.122C37.3827 11.0398 36.9457 10.9977 36.504 11.0009C35.8851 11.0053 35.2568 11.0979 34.6339 11.288C34.545 11.3151 34.4559 11.3437 34.3673 11.3749C33.9237 11.5308 33.4835 11.7374 33.0528 11.9989C32.9668 12.0511 32.8812 12.1063 32.796 12.163C32.7107 12.2196 32.6255 12.2786 32.5411 12.3397C31.9362 12.7775 31.278 13.1054 30.5938 13.3231C30.5083 13.3504 30.4223 13.3765 30.336 13.4003C30.0771 13.4716 29.8148 13.5268 29.5508 13.5673C29.4628 13.5808 29.3746 13.5924 29.2862 13.6024C29.1209 13.6212 28.9551 13.6338 28.7891 13.6405C27.2688 13.7027 25.7325 13.2617 24.4434 12.3163C23.1814 11.3909 21.8153 10.9711 20.4893 10.954C20.397 10.9528 20.3048 10.9533 20.213 10.9559Z" fill="#D2042D"/>
</svg>
