<svg width="202" height="193" viewBox="0 0 202 193" fill="none" xmlns="http://www.w3.org/2000/svg">
<path d="M76.7946 31.4885C85.2405 5.46376 122.014 5.46377 130.46 31.4885C134.236 43.1272 145.069 51.0071 157.292 51.0071C184.623 51.0071 195.987 86.0231 173.875 102.107C163.987 109.3 159.849 122.051 163.626 133.689C172.072 159.714 142.322 181.355 120.211 165.271C110.322 158.078 96.9322 158.078 87.0441 165.271C64.9326 181.355 35.1825 159.714 43.6281 133.689C47.4052 122.051 43.2675 109.3 33.3791 102.107C11.268 86.0231 22.6316 51.0071 49.9624 51.0071C62.1854 51.0071 73.0177 43.1272 76.7946 31.4885Z" fill="#D2042D"/>
<path d="M50.0602 62.9151C42.5961 39.6632 69.2104 20.4326 88.8996 34.851C97.7045 41.2991 109.655 41.3372 118.502 34.9453C138.282 20.6526 164.774 40.0525 157.162 63.256C153.758 73.6335 157.415 85.0246 166.219 91.4728C185.909 105.891 175.667 137.112 151.274 137.034C140.365 136.999 130.674 144.002 127.27 154.379C119.658 177.583 86.8363 177.478 79.3721 154.226C76.0345 143.827 66.3882 136.764 55.4792 136.729C31.0857 136.651 21.0427 105.366 40.8231 91.0735C49.6691 84.6813 53.3983 73.3134 50.0602 62.9151Z" fill="#D2042D"/>
<path d="M61.5495 70.2272C55.6626 51.879 76.6735 36.6973 92.2113 48.0718C99.1596 53.1587 108.593 53.1862 115.576 48.1402C131.192 36.8568 152.098 52.1611 146.085 70.4745C143.396 78.6643 146.28 87.6532 153.229 92.74C168.766 104.115 160.676 128.755 141.423 128.699C132.812 128.674 125.162 134.201 122.473 142.391C116.459 160.705 90.5538 160.629 84.6669 142.281C82.034 134.075 74.4221 128.503 65.8117 128.477C46.5575 128.421 38.6369 103.734 54.2526 92.4505C61.2361 87.4047 64.1818 78.4325 61.5495 70.2272Z" fill="white"/>
<path d="M73.1881 77.4687C69.0488 64.3938 84.1809 53.4595 95.2713 61.5127C100.231 65.1138 106.994 65.0913 112.023 61.4572C123.27 53.3309 138.192 64.1661 133.8 77.2693C131.835 83.1292 133.863 89.5352 138.823 93.1364C149.913 101.189 144.003 118.82 130.198 118.865C124.025 118.886 118.515 122.867 116.55 128.727C112.157 141.83 93.5832 141.891 89.4439 128.816C87.593 122.969 82.1598 119.023 75.9861 119.044C62.1808 119.089 56.6115 101.497 67.8582 93.3698C72.8874 89.7357 75.0396 83.3165 73.1881 77.4687Z" fill="#D2042D"/>
<path d="M110.225 106.056C115.761 102.057 117.01 94.3209 113.014 88.7785C109.019 83.236 101.293 81.9856 95.7574 85.9855C90.2217 89.9854 88.9728 97.7211 92.9679 103.264C96.9629 108.806 104.689 110.056 110.225 106.056Z" fill="white"/>
<path d="M103.597 25.425C96.4254 25.425 90.6115 27.8828 90.6115 30.9146C90.6115 33.9463 96.4254 36.4041 103.597 36.4041C110.769 36.4041 116.583 33.9463 116.583 30.9146C116.583 27.8828 110.769 25.425 103.597 25.425Z" fill="white"/>
<path d="M35.8373 73.5458C33.4677 80.3231 33.8637 86.6292 36.7218 87.6309C39.5798 88.6326 43.8176 83.9506 46.1872 77.1733C48.5568 70.396 48.1608 64.0899 45.3027 63.0882C42.4447 62.0865 38.2069 66.7686 35.8373 73.5458Z" fill="white"/>
<path d="M61.5654 153.219C67.2701 157.571 73.3824 159.144 75.2175 156.732C77.0527 154.32 73.9157 148.838 68.211 144.486C62.5062 140.135 56.3939 138.562 54.5588 140.973C52.7237 143.385 55.8606 148.868 61.5654 153.219Z" fill="white"/>
<path d="M145.687 153.603C151.34 149.185 154.412 143.666 152.549 141.276C150.686 138.886 144.592 140.531 138.939 144.949C133.286 149.368 130.214 154.887 132.077 157.277C133.94 159.667 140.034 158.022 145.687 153.603Z" fill="white"/>
<path d="M160.958 77.6669C163.222 84.4803 167.387 89.2277 170.26 88.2706C173.133 87.3135 173.627 81.0144 171.363 74.201C169.099 67.3877 164.934 62.6402 162.061 63.5973C159.188 64.5544 158.694 70.8536 160.958 77.6669Z" fill="white"/>
</svg>
